<?xml version="1.0" standalone="no"?>
<!DOCTYPE svg PUBLIC "-//W3C//DTD SVG 20010904//EN"
 "http://www.w3.org/TR/2001/REC-SVG-20010904/DTD/svg10.dtd">
<svg version="1.0" xmlns="http://www.w3.org/2000/svg"
 width="768.000000pt" height="768.000000pt" viewBox="0 0 768.000000 768.000000"
 preserveAspectRatio="xMidYMid meet">

<g transform="translate(0.000000,768.000000) scale(0.100000,-0.100000)"
fill="#000000" stroke="none">
<path d="M3672 6879 c-421 -23 -806 -127 -1192 -320 -983 -493 -1624 -1472
-1679 -2567 -52 -1033 408 -2005 1239 -2619 340 -251 719 -424 1133 -518 240
-55 373 -69 657 -69 162 -1 306 4 370 12 237 29 498 93 730 178 128 48 412
189 538 268 711 449 1209 1169 1372 1986 46 232 55 332 54 620 0 284 -15 426
-69 660 -134 583 -427 1101 -861 1520 -612 591 -1439 898 -2292 849z m562
-349 c413 -62 771 -198 1111 -423 569 -376 980 -954 1145 -1608 64 -253 75
-346 74 -664 0 -310 -6 -372 -60 -612 -147 -657 -564 -1264 -1131 -1646 -346
-234 -705 -375 -1130 -443 -153 -25 -536 -30 -703 -10 -443 54 -831 197 -1195
440 -178 119 -298 220 -455 383 -1146 1185 -989 3080 337 4070 408 304 876
484 1393 533 147 14 454 4 614 -20z"/>
<path d="M4267 4063 l-887 -888 -487 488 -487 488 -116 -116 -115 -115 603
-603 602 -602 1000 1000 c550 550 1000 1002 1000 1006 0 8 -211 229 -218 229
-4 0 -406 -399 -895 -887z"/>
</g>
</svg>
